<svg width="88" height="88" viewBox="0 0 88 88" fill="none" xmlns="http://www.w3.org/2000/svg">
	<path d="M13.461 37.1116C12.1705 41.4639 10.8799 50.0895 11.0089 55.0035C11.0089 58.911 12.2403 65.0228 16.7668 69.125C23.9632 75.6467 41.0471 73.357 49.9518 70.459C51.3763 69.9955 53.224 69.1326 54.2296 67.6104C55.8003 65.2329 55.6039 61.3422 52.8564 61.6771C56.8492 60.4566 57.1709 53.5512 53.1002 53.5512C58.0004 53.0572 56.5931 44.9047 52.1029 44.9047C64.9801 41.2236 76.4395 35.5997 76.9557 33.4577C77.4719 31.3157 73.4664 29.8113 65.5989 32.0717C57.8742 34.2911 42.8854 37.1116 37.0779 38.1196C31.2705 39.1276 23.1401 37.1116 23.9144 27.1577C24.6887 17.2038 21.0712 15.867 19.9137 15.1878C18.5817 14.4063 14.3644 13.8019 15.3968 18.8418C16.4292 23.8818 14.1785 34.6917 13.461 37.1116Z" fill="#00C896" />
</svg>
